<?xml version="1.0" standalone="no"?>
<!DOCTYPE svg PUBLIC "-//W3C//DTD SVG 20010904//EN"
 "http://www.w3.org/TR/2001/REC-SVG-20010904/DTD/svg10.dtd">
<svg version="1.0" xmlns="http://www.w3.org/2000/svg"
 width="231.000000pt" height="172.000000pt" viewBox="0 0 231.000000 172.000000"
 preserveAspectRatio="xMidYMid meet">

<g transform="translate(0.000000,172.000000) scale(0.100000,-0.100000)"
fill="#000000" stroke="none">
<path d="M358 1580 c-46 -14 -90 -51 -109 -94 -17 -38 -19 -77 -19 -623 0
-619 -1 -611 49 -666 53 -59 23 -57 887 -57 537 0 802 3 821 11 38 14 71 46
94 91 18 35 19 67 19 619 0 573 0 583 -21 627 -13 26 -38 54 -62 70 l-41 27
-795 2 c-438 1 -808 -2 -823 -7z m463 -477 c136 -163 153 -191 142 -220 -8
-20 -228 -287 -261 -316 -46 -42 -133 7 -118 66 3 14 51 80 106 146 55 66 100
123 100 126 0 2 -47 61 -105 130 -71 86 -105 134 -105 151 0 35 42 74 80 74
27 0 44 -17 161 -157z m709 -603 c28 -28 27 -84 -2 -104 -19 -14 -64 -16 -289
-16 l-268 0 -20 26 c-27 35 -26 59 4 89 l24 25 266 0 c252 0 266 -1 285 -20z"/>
</g>
</svg>
